<svg width="3836" height="560" viewBox="0 0 3836 560" fill="none" xmlns="http://www.w3.org/2000/svg">
<rect x="1" y="405" width="3834" height="155" fill="white"/>
<path d="M3736.67 3.06664C3725.33 8.79998 3718.67 23.6 3721.87 35.4666C3725.47 48.6666 3734.53 56.2666 3748 57.0666C3755.33 57.6 3757.33 57.0666 3763.47 53.8666C3774.93 47.6 3780.13 36.1333 3777.73 22.6666C3774.4 4.66664 3753.47 -5.33336 3736.67 3.06664ZM3763.07 8.79998C3768.13 11.7333 3774 22.5333 3774 28.6666C3774 35.6 3768 45.7333 3761.87 49.2C3750.27 55.7333 3735.07 51.6 3729.07 40.1333C3717.47 18.1333 3741.47 -4.00002 3763.07 8.79998Z" fill="#2F3191"/>
<path d="M3741.73 12.8C3741.07 13.3333 3740.67 20.9333 3740.67 29.6C3740.67 42.6666 3741.07 45.3333 3742.67 45.3333C3744.13 45.3333 3744.67 43.7333 3744.67 38.5333V31.8666L3749.07 32.2666C3752.93 32.6666 3753.47 33.3333 3755.2 38.9333C3756.53 43.3333 3757.87 45.3333 3759.47 45.3333C3761.47 45.3333 3761.6 44.6666 3760.4 39.6C3759.6 36.5333 3758.13 33.0666 3757.07 31.8666C3755.6 30.1333 3755.73 29.4666 3758 27.3333C3761.47 24.2666 3761.47 18.4 3758 15.3333C3755.2 12.8 3743.47 10.9333 3741.73 12.8ZM3753.47 17.0666C3758.4 20.4 3754.67 28 3748 28C3744.93 28 3744.67 27.4666 3744.67 22C3744.67 16.4 3744.93 16 3748.4 16C3750.4 16 3752.67 16.5333 3753.47 17.0666Z" fill="#2F3191"/>
<path d="M441.867 47.6C441.067 49.7333 414.267 120.667 382.4 205.333C350.533 290 324.133 359.733 323.867 360.267C323.467 360.8 345.867 361.333 373.6 361.333H424.133L431.2 336.933C435.2 323.6 438.933 311.6 439.6 310.267C440.667 308.133 444.4 308 496.4 308.267L552 308.667L560 334.933L568 361.333H619.067C647.067 361.333 670 360.8 670 360.267C670 359.733 666.133 349.067 661.467 336.667C640.8 281.733 552.8 48.4 552 46.2666C551.067 44.1333 547.2 44 497.2 44H443.333L441.867 47.6ZM514 183.467C523.467 214.133 531.067 239.467 530.8 239.6C530.533 239.867 514.8 239.867 495.733 239.733L461.2 239.333L475.067 194C482.667 169.067 490.4 143.733 492.267 137.6C494.133 131.6 496 126.8 496.267 127.2C496.667 127.467 504.667 152.933 514 183.467Z" fill="#2F3191"/>
<path d="M703.333 202.667V361.333H749.333H795.333L795.6 274.267L796 187.333L802.133 196C805.467 200.8 828 233.6 852.133 269.067C876.267 304.4 900.267 339.6 905.333 347.067L914.667 360.667L961.067 361.067L1007.33 361.333V202.667V44H961.333H915.333V130.667C915.333 178.267 914.933 217.333 914.4 217.333C913.467 217.333 848.4 122.8 806.267 60.4L795.2 44H749.2H703.333V202.667Z" fill="#2F3191"/>
<path d="M1155.2 47.6C1154.4 49.7333 1127.73 120.533 1095.87 205.2C1064 289.867 1037.6 359.6 1037.2 360.267C1036.8 360.8 1059.2 361.333 1086.93 361.333H1137.47L1144.53 336.933C1148.53 323.6 1152.27 311.6 1152.93 310.267C1154 308.133 1157.73 308 1209.73 308.267L1265.33 308.667L1273.33 334.933L1281.33 361.333H1332.53C1380.53 361.333 1383.6 361.2 1383.07 358.933C1382.4 356.933 1361.6 301.467 1288.67 108C1276.27 75.3333 1265.87 47.6 1265.33 46.2666C1264.4 44.1333 1260.53 44 1210.53 44H1156.67L1155.2 47.6ZM1227.33 183.333C1236.4 212.667 1244 237.467 1244.27 238.267C1244.8 239.6 1237.33 240 1209.6 240H1174.13L1176.67 232.267C1178 228.133 1184.4 207.6 1190.67 186.667C1197.07 165.733 1203.73 143.6 1205.6 137.467C1207.73 130.667 1209.47 127.067 1210 128.133C1210.53 129.2 1218.4 154 1227.33 183.333Z" fill="#2F3191"/>
<path d="M1416.67 202.667V361.333H1462.67H1508.67L1508.93 274.267L1509.33 187.333L1518.13 200C1522.93 206.933 1531.07 218.667 1536 226C1541.07 233.333 1548.27 243.867 1552 249.333C1555.73 254.8 1569.33 274.667 1582 293.333C1594.8 312 1609.33 333.333 1614.4 340.667C1619.47 348 1624.67 355.6 1625.87 357.6L1628 361.333H1674.4H1720.67V202.667V44H1674.67H1628.67V130.667C1628.67 178.267 1628.27 217.333 1627.73 217.333C1627.07 217.333 1608.93 191.333 1587.33 159.733C1565.73 128 1539.07 89.0666 1528.13 73.0666L1508.27 44H1462.53H1416.67V202.667Z" fill="#2F3191"/>
<path d="M1788.67 202.8V361.6L1872.4 360.933C1962.27 360.267 1962 360.267 1990.93 352.667C2023.6 344 2049.07 322.133 2066 288.133C2076.53 266.933 2080.67 243.333 2080.67 203.467C2080.67 156.933 2072.93 125.467 2054.93 98.4C2034.27 67.4667 2006 50.8 1964.8 45.4667C1957.73 44.5333 1922.8 44 1871.07 44H1788.67V202.8ZM1939.2 118.667C1961.47 124.933 1972.4 136.533 1978.67 160.667C1983.73 180.267 1984.4 219.2 1980 242.4C1976.53 260.267 1968.13 274.4 1957.2 280.8C1946.93 286.8 1939.2 288.267 1911.73 288.933L1886 289.6V203.067C1886 155.467 1886.4 116 1887.07 115.333C1889.07 113.2 1928.8 115.733 1939.2 118.667Z" fill="#2F3191"/>
<path d="M2144.67 194.933C2113.47 277.867 2086.67 349.333 2085.07 353.6L2082.13 361.333H2132.4H2182.67L2189.2 338.933C2192.8 326.667 2196.53 314.667 2197.47 312.267L2199.2 308L2254.8 308.267L2310.53 308.667L2318.53 334.933L2326.53 361.333H2377.73C2425.87 361.333 2428.93 361.2 2428.27 358.933C2428 357.733 2407.07 302.4 2382 236C2356.93 169.6 2330.4 99.3333 2323.07 79.6L2309.73 44H2255.47H2201.33L2144.67 194.933ZM2272.53 183.467L2289.73 239.333L2272.53 239.733C2263.2 239.867 2247.47 239.867 2237.6 239.733L2219.73 239.333L2233.6 194C2241.2 169.067 2248.93 143.6 2250.8 137.467C2252.67 131.467 2254.4 126.667 2254.67 126.933C2255.07 127.2 2263.07 152.667 2272.53 183.467Z" fill="#2F3191"/>
<path d="M2459.33 202.667V361.333H2499.33H2539.33V242.667C2539.33 167.6 2539.87 124 2540.67 124C2541.33 124 2542.53 126.267 2543.2 128.933C2546.8 142.933 2597.47 340.933 2599.87 350.267L2602.53 361.333H2638.93C2658.93 361.333 2675.33 361.067 2675.33 360.8C2675.33 357.867 2735.87 125.733 2736.8 124.667C2737.73 123.733 2738.13 123.733 2738 124.667C2737.73 125.333 2737.73 178.933 2737.87 243.6L2738 361.333H2778H2818V202.667V44H2753.33C2717.73 44 2688.67 44.2666 2688.67 44.6666C2688.67 47.0666 2640.27 232.8 2639.47 233.733C2638.67 234.533 2617.87 156.4 2594.8 65.7333L2589.33 44H2524.4H2459.33V202.667Z" fill="#2F3191"/>
<path d="M2880.67 202.667V361.333H3015.33H3150V325.333V289.333H3064.67H2979.33V258V226.667H3056H3132.67V194.667V162.667H3056H2979.33V136.667V110.667H3062H3144.67V77.3333V44H3012.67H2880.67V202.667Z" fill="#2F3191"/>
<path d="M3203.33 202.667V361.333H3329.33H3455.33V322V282.667H3378H3300.67V163.333V44H3252H3203.33V202.667Z" fill="#2F3191"/>
<path d="M3586.27 47.6C3585.6 49.7333 3558.8 120.8 3526.8 205.733C3494.8 290.667 3468.67 360.4 3468.67 360.667C3468.67 361.067 3491.2 361.333 3518.67 361.333H3568.53L3571.2 352.267C3572.67 347.333 3576.27 335.467 3579.07 326L3584.27 308.667L3640.27 308.267L3696.27 308L3704.27 334.267L3712.4 360.667L3763.73 361.067L3815.2 361.333L3813.47 356.4C3811.87 351.867 3725.87 124 3704.13 66.6666L3695.87 44.6666L3641.73 44.2666L3587.6 44L3586.27 47.6ZM3658.8 184.133C3667.87 213.733 3675.33 238.4 3675.33 238.933C3675.33 239.6 3659.73 240 3640.67 240C3621.6 240 3606 239.6 3606 239.2C3606 238.8 3613.47 214 3622.67 184C3631.87 154 3639.33 128.933 3639.33 128.4C3639.33 127.867 3640 128.133 3640.8 128.933C3641.6 129.733 3649.6 154.533 3658.8 184.133Z" fill="#2F3191"/>
<path d="M146.667 46.6666C144.533 47.3333 138.533 48.5333 133.333 49.4666C104.267 54.5333 73.4666 71.0666 50.5332 93.8666C26.9332 117.467 13.9999 141.333 6.39988 174.667C-5.86679 228.933 14.9332 289.467 58.5332 326.933C71.0666 337.6 89.5999 349.2 103.6 354.8C113.467 358.933 136.267 365.333 140.667 365.333C142 365.333 144.8 366.267 146.8 367.333C152 370 172.133 370 178.933 367.333C181.733 366.267 187.867 364.8 192.533 364C216.267 359.867 244.8 346.533 263.333 330.8C292.267 306.4 309.2 279.733 319.067 243.333C322.267 231.067 322.667 228 322.533 206C322.533 183.067 322.4 181.333 318.267 167.067C316 158.933 311.6 146.933 308.667 140.533C287.6 94.9333 243.333 59.2 196.267 50C190.267 48.9333 182.8 47.3333 179.6 46.6666C172.933 45.0666 152.4 45.2 146.667 46.6666ZM159.333 58C159.333 58.4 157.333 62.8 154.8 67.8666C152.267 72.9333 150.667 77.4666 151.067 77.8666C151.467 78.2666 151.067 78.6666 150.267 78.6666C149.333 78.6666 148.8 79.0666 148.933 79.6C149.067 80.2666 146.4 86.5333 142.933 93.7333C139.467 100.933 136.667 107.067 136.667 107.333C136.667 107.733 134.667 112.267 132.133 117.6C129.6 122.933 124.8 133.6 121.333 141.333C113.2 159.6 110.533 165.6 105.6 176C97.4665 193.867 96.2665 196.667 96.3999 197.6C96.5332 198.267 95.9999 198.667 95.1999 198.667C94.5332 198.667 94.2665 199.2 94.6665 200C95.0665 200.667 94.7999 201.333 94.1332 201.333C93.3332 201.333 92.7999 201.733 92.9332 202.267C93.1999 202.933 90.6665 208.667 87.4665 215.333C84.2665 221.867 81.5999 228.133 81.5999 228.933C81.5999 229.867 81.0665 230.667 80.3999 230.667C79.8665 230.667 79.4665 231.067 79.5999 231.6C79.7332 232.267 77.5999 237.467 74.7999 243.333C68.1332 257.6 66.7999 260.533 67.0666 261.6C67.1999 262.267 66.6666 262.667 65.9999 262.667C65.3332 262.667 64.7999 263.067 64.9332 263.6C65.0666 264.267 62.6666 270 59.5999 276.533C56.5332 283.067 53.9999 288.667 53.9999 288.933C53.9999 289.2 52.7999 292.267 51.1999 295.6L48.3999 301.733L45.3332 297.867C25.4665 273.2 12.2665 231.2 14.3999 198.8C17.1999 154.8 39.4665 112.667 72.6665 88.1333C81.8665 81.2 97.4665 72.1333 104 69.6C106.267 68.8 111.333 66.9333 115.333 65.4666C119.333 63.8666 123.867 62.6666 125.467 62.6666C126.933 62.6666 128.667 62.2666 129.2 61.7333C130.133 60.8 131.467 60.4 140 59.3333C142.8 58.9333 145.333 58.4 145.6 58.2666C146.133 57.6 159.333 57.4666 159.333 58ZM186.667 59.2C188.933 59.6 192 60.2666 193.733 60.6666C195.333 61.0666 197.867 61.6 199.467 62C216.4 65.7333 241.6 78 255.733 89.3333C268 99.2 283.333 116.933 291.333 130.533C296.933 140.267 304.667 158.4 305.067 162.8C305.2 164.133 305.867 165.333 306.533 165.333C307.2 165.333 307.467 165.733 307.067 166.133C306.667 166.533 307.067 170 308.133 173.733C312.4 189.733 312.933 215.067 309.333 236C309.2 237.067 308.667 238.933 308.267 240C307.867 241.067 306.8 244.667 306 248C301.067 267.733 276.667 309.867 276.667 298.667C276.667 297.2 258.933 258.267 236.667 210.667C231.333 199.333 223.867 183.067 220 174.667C216.133 166.267 210.933 154.8 208.267 149.333C202.533 137.067 196.933 125.067 185.6 100.4C180.667 90 174.267 76.2666 171.333 69.8666C168.4 63.6 166 58.2666 166 58C166 57.3333 181.867 58.2666 186.667 59.2ZM137.333 209.2C137.6 210.933 138.267 213.333 138.667 214.667C139.067 216 139.733 218.4 140 219.867C140.4 221.467 140.933 223.867 141.333 225.333C141.733 226.8 142.267 229.067 142.533 230.267C142.8 231.6 144.133 236.533 145.333 241.333C146.533 246.133 147.867 251.2 148.133 252.667C148.8 256.133 159.6 300.133 160.4 302.667C160.8 303.733 160.933 305.2 160.8 305.733C160.667 306.267 161.733 306.133 163.067 305.467C164.8 304.533 166.133 301.467 167.2 295.733C168.133 291.067 171.2 278 174 266.667C176.8 255.333 180.933 237.6 183.333 227.333C188.133 206 188.533 204.8 189.2 205.467C189.6 205.733 193.467 215.333 197.867 226.667C202.4 238 206.667 248.4 207.333 249.6C208.133 250.933 208.667 252.933 208.667 254C208.667 255.067 209.333 256 210.267 256C211.067 256 211.467 256.4 210.933 256.8C210.533 257.2 212.267 262.267 214.667 268.133C217.2 274 219.333 278.933 219.333 279.333C219.467 280.133 222.267 286.933 226.933 298.4L230.4 306.8L250.933 306.533C262.267 306.533 271.867 306.8 272.267 307.2C273.2 308.133 259.867 320.267 250.267 327.467C217.867 351.2 176.267 360.133 132.8 352.533C118.933 350.133 95.7332 340.4 79.4665 330C73.1999 326.133 52.6666 308.4 52.6666 306.933C52.6666 306.4 61.3332 306 71.9999 306.133C85.1999 306.4 91.5999 306 92.3999 304.933C93.4665 303.6 126.933 226.8 133.733 210.267C135.867 204.933 136.4 204.8 137.333 209.2Z" fill="#2F3191"/>
<path d="M0.666504 482.667V560H1918H3835.33V482.667V405.333H1918H0.666504V482.667ZM386.667 435.6C395.067 438.4 403.6 446.933 406.4 455.333C407.733 458.933 408.4 462 408.133 462.4C407.6 462.933 392.133 466.533 389.867 466.667C389.333 466.667 388.267 464.8 387.333 462.667C381.733 449.067 361.467 446.8 350.8 458.667C344.8 465.333 342.933 472.667 343.6 486.933C344.133 496.8 344.667 499.333 348.133 504.8C350.267 508.267 354.133 512.133 356.667 513.467C363.333 517.067 375.6 516.8 383.333 512.8C389.067 510 389.333 509.467 389.733 503.6L390.133 497.333H379.467H368.667V488.667V480H389.333H410.133L409.733 500.267L409.333 520.667L402.933 524.8C392.267 531.867 379.867 535.067 366.933 534.4C346.133 533.333 332.8 523.6 325.867 504.533C321.733 493.2 321.733 473.067 325.867 462.533C331.2 448.533 339.867 439.733 352.267 435.2C359.467 432.667 378.8 432.8 386.667 435.6ZM566.267 437.733C573.467 441.867 578.667 449.733 580.133 458.267L581.067 464H571.2H561.333L559.067 458.667C556.533 452.533 552.8 450.667 543.867 450.667C535.333 450.667 530 453.733 530 458.667C530 464.133 534.4 467.067 549.467 471.2C565.2 475.6 571.067 478.4 576.4 484.533C586.667 496.267 584.933 516.8 572.8 527.067C560.8 537.067 532.933 537.2 519.867 527.333C514.667 523.333 509.067 513.333 507.867 505.6L507.067 500.4L514.133 499.6C525.2 498.267 525.733 498.267 526.667 502.4C527.067 504.533 529.2 508.267 531.2 510.8C534.8 515.067 535.467 515.333 545.067 515.733C554.933 516.267 555.333 516.133 559.333 512.267C564.4 507.067 564.667 501.333 560.133 497.6C558.267 496.267 551.067 493.467 543.867 491.467C536.8 489.467 528.8 486.8 526.133 485.333C516.933 480.667 510 470.133 510 460.533C510 454.4 514.4 445.2 519.333 441.067C526.933 434.667 531.6 433.333 546.667 433.733C558.533 434 560.8 434.4 566.267 437.733ZM1020.67 436.133C1028.4 439.6 1033.47 444.533 1037.47 452.267C1041.87 460.8 1041.6 462.267 1035.6 463.867C1022.67 467.467 1022.27 467.333 1020.27 462.4C1016.53 453.333 1007.2 449.2 997.067 451.867C985.467 455.067 979.733 467.733 980.933 488C982.133 507.067 989.067 516 1002.93 516C1008.8 516 1010.67 515.333 1014.53 512C1017.07 509.733 1020.13 505.2 1021.47 501.867C1022.67 498.533 1024.4 496.133 1025.2 496.4C1026 496.667 1029.87 498 1033.6 499.2C1037.47 500.533 1040.93 502.133 1041.47 502.8C1042.67 504.8 1035.6 518.933 1030.93 523.733C1023.2 531.867 1017.6 534 1003.33 534C992.667 534 989.733 533.467 984.667 530.933C975.867 526.4 969.333 519.467 965.067 510.133C961.6 502.533 961.333 500.933 961.333 484C961.333 466.933 961.6 465.6 965.2 457.6C969.733 447.867 979.2 438.533 987.733 435.6C996.267 432.533 1013.33 432.8 1020.67 436.133ZM1292.4 438C1301.07 442.667 1306.67 448.8 1311.2 458.667C1314.4 465.467 1314.67 467.333 1314.67 484C1314.67 500.667 1314.4 502.533 1311.2 509.333C1306.4 519.6 1300.53 525.867 1291.6 530.267C1284.8 533.6 1282.53 534 1270.67 534C1259.6 534 1256.13 533.467 1250.4 530.8C1231.87 522.533 1221.87 499.2 1225.73 473.6C1227.73 460.933 1232.13 451.733 1239.73 444.267C1248.53 435.6 1255.87 433.2 1272 433.733C1283.87 434 1286.13 434.533 1292.4 438ZM1515.33 436.133C1523.07 439.6 1528.13 444.533 1532.13 452.267C1536.53 460.8 1536.27 462.267 1530.27 463.867C1517.33 467.467 1516.93 467.333 1514.93 462.4C1511.2 453.333 1501.87 449.2 1491.73 451.867C1480.13 455.067 1474.4 467.733 1475.6 488C1476.8 507.067 1483.73 516 1497.6 516C1503.47 516 1505.33 515.333 1509.2 512C1511.73 509.733 1514.8 505.2 1516.13 501.867C1517.33 498.533 1519.07 496.133 1519.87 496.4C1520.67 496.667 1524.53 498 1528.27 499.2C1532.13 500.533 1535.6 502.133 1536.13 502.8C1537.33 504.8 1530.27 518.933 1525.6 523.733C1517.87 531.867 1512.27 534 1498 534C1487.33 534 1484.4 533.467 1479.33 530.933C1470.53 526.4 1464 519.467 1459.73 510.133C1456.27 502.533 1456 500.933 1456 484C1456 466.933 1456.27 465.6 1459.87 457.6C1464.4 447.867 1473.87 438.533 1482.4 435.6C1490.93 432.533 1508 432.8 1515.33 436.133ZM1604.13 436.267C1611.07 440 1616.67 446.8 1618.8 454.267C1619.87 458.133 1620.53 461.867 1620 462.667C1619.6 463.333 1615.07 464 1610 464C1601.2 464 1600.67 463.867 1599.87 460.667C1599.47 458.8 1597.2 455.733 1594.93 453.867C1591.2 450.8 1590 450.4 1582.27 450.933C1575.2 451.333 1573.2 452 1571.2 454.533C1565.73 461.2 1569.6 465.333 1585.6 470C1605.2 475.867 1611.07 478.533 1616 484.267C1628.27 498.667 1623.6 522 1606.8 530.533C1598.13 535.067 1580.27 536 1570 532.667C1557.73 528.667 1549.6 518.8 1547.87 506.267L1547.07 500.4L1554.13 499.6C1565.33 498.267 1565.47 498.267 1567.2 503.867C1568 506.8 1570.53 510.667 1572.8 512.533C1576.13 515.467 1578.27 516 1584.8 516C1589.2 516 1594.53 515.067 1596.53 514C1600.93 511.867 1604 505.467 1602.67 501.333C1601.33 497.333 1597.47 495.333 1583.47 491.333C1563.47 485.733 1557.47 481.867 1552.53 471.333C1546.13 457.6 1553.6 440.667 1568.13 435.2C1575.2 432.533 1598.4 433.333 1604.13 436.267ZM2218.4 435.2C2228.4 438.8 2237.6 448.8 2240 458.933C2240.8 462.133 2240.4 462.667 2235.73 463.867C2232.93 464.667 2228.53 465.733 2226 466.133C2221.6 466.8 2221.2 466.667 2219.6 462.133C2214.93 449.467 2197.07 447.2 2187.47 458C2182 464.267 2180.27 471.6 2180.93 486.667C2181.73 507.333 2188.27 516 2202.8 516C2208.8 516 2210.67 515.333 2214.53 512C2217.07 509.733 2219.87 505.6 2220.8 502.933C2221.6 500.267 2222.53 497.6 2222.8 497.067C2223.2 496.533 2227.47 497.6 2232.4 499.2C2242.27 502.667 2242.4 502.8 2238 512.8C2232 526.667 2219.2 534.667 2202.8 534.667C2191.87 534.667 2183.6 531.733 2176 525.067C2168 518 2163.73 510.4 2161.2 498.533C2155.07 470 2166.67 442.933 2188.27 435.2C2194.8 432.933 2211.87 432.933 2218.4 435.2ZM2820.8 434.8C2831.47 438 2840.53 449.467 2840.67 459.6V464H2831.33H2822L2820.13 459.467C2817.2 452.533 2812.8 450.267 2803.33 450.933C2794.67 451.6 2790 454.4 2790 459.333C2790 463.333 2793.47 466 2802 468.667C2831.6 477.733 2836.53 480.4 2840.8 489.867C2842.4 493.333 2843.33 498.4 2843.33 504C2843.33 516 2837.73 525.6 2828 530.667C2822.13 533.6 2819.87 534 2806.67 534C2790.53 534 2785.07 532.267 2777.73 524.4C2772.27 518.667 2765.87 502.4 2768.4 500.8C2769.07 500.4 2773.47 499.733 2778.27 499.2L2786.93 498.4L2787.87 503.067C2788.4 506.133 2790.4 509.333 2793.47 511.867C2797.6 515.6 2799.07 516 2806.67 516C2813.87 516 2815.73 515.467 2819.2 512.533C2822.53 509.867 2823.33 508 2823.33 504C2823.33 497.6 2821.2 496.133 2804.8 491.467C2787.6 486.533 2780.13 482.533 2775.73 475.733C2772.53 470.933 2772 468.8 2772 460.667C2772 448.4 2775.87 442 2786.13 436.8C2792.13 433.867 2794.93 433.333 2804.4 433.333C2810.67 433.333 2818 434 2820.8 434.8ZM2920 437.067C2934.27 443.867 2942 455.467 2944.93 474.267C2948 493.467 2941.87 513.867 2930.27 524.133C2921.2 532 2911.73 535.067 2897.87 534.4C2878.8 533.467 2867.2 526 2859.47 509.333C2856.27 502.533 2856 500.667 2856 484C2856 466.267 2856.13 465.733 2860.4 457.067C2865.33 446.933 2874 438.533 2882.4 435.467C2885.6 434.4 2893.07 433.467 2900 433.467C2910.53 433.333 2912.93 433.733 2920 437.067ZM3597.47 436.933C3600.4 438.533 3604.8 441.867 3606.93 444.4C3611.07 449.2 3616.27 460.8 3614.93 462.133C3614.27 462.8 3599.07 466.533 3596.4 466.667C3595.73 466.667 3595.33 465.733 3595.33 464.667C3595.33 461.467 3587.47 453.6 3582.4 451.867C3577.2 450.133 3568.93 451.067 3563.2 454C3552.13 459.733 3547.33 476.933 3551.47 496C3553.07 503.467 3558.53 510.8 3564.8 514.133C3570.53 517.067 3583.07 516.533 3590 512.933C3595.73 510.133 3596 509.733 3596.4 503.6L3596.8 497.333H3586.13H3575.33V488.667V480H3596H3616.67V500V520L3611.2 524C3600.93 531.333 3592.27 533.867 3576.67 534C3564 534 3562 533.6 3555.07 530.267C3546 525.867 3538.93 518.267 3534.27 508.133C3529.33 497.733 3528.53 475.2 3532.53 463.733C3537.47 449.467 3546.4 439.867 3558.93 435.2C3566.93 432.267 3590.4 433.333 3597.47 436.933ZM204.533 482.4C214.4 508.533 222.8 530.8 223.067 531.6C223.467 532.933 220.933 533.333 212.933 533.333H202.4L198.4 522.267L194.533 511.333L176.533 510.933L158.533 510.533L154.667 522L150.667 533.333H140.4C134.667 533.333 130 532.933 130 532.533C130 532.133 137.867 509.867 147.6 483.2L165.067 434.667H175.867H186.667L204.533 482.4ZM290.667 436.133C311.067 441.867 315.067 474 296.8 485.467C293.467 487.6 289.733 489.333 288.267 489.333C286.267 489.333 287.067 490.533 291.6 495.067C296.4 499.867 312.133 524.267 314.8 531.2C315.467 533.067 314.133 533.333 304.4 533.333H293.067L281.867 515.733C275.733 506.133 269.2 497.2 267.333 495.867C265.467 494.667 261.2 493.2 257.733 492.8L251.333 492V512.667V533.333H242H232.667V484V434.667H259.067C274.133 434.667 287.6 435.333 290.667 436.133ZM495.333 443.333V452H470.667H446V462.667V473.333H469.333H492.8L492.4 481.6L492 490L469.067 490.4L446 490.667V503.333V516H471.333H496.667V524.667V533.333H461.333H426V484V434.667H460.667H495.333V443.333ZM666 443.333V452H652.667H639.333L639.067 492.267L638.667 532.667L629.067 533.067L619.333 533.467V492.667V452H605.333H591.333V443.333V434.667H628.667H666V443.333ZM782 443.333V452H757.333H732.667V462.667V473.333H756H779.333V482V490.667H756H732.667V503.333V516H758.667H784.8L784.4 524.267L784 532.667L748.4 533.067L712.667 533.333V484V434.667H747.333H782V443.333ZM947.333 443.333V452H922H896.667V462.667V473.333H920H943.333V482V490.667H920H896.667V503.333V516H922.667H948.667V524.667V533.333H913.333H878V484V434.667H912.667H947.333V443.333ZM1124.67 443.333V452H1111.33H1098L1097.73 492.267L1097.33 532.667L1087.73 533.067L1078 533.467V492.667V452H1064H1050V443.333V434.667H1087.33H1124.67V443.333ZM1198.4 437.867C1206.67 442 1210.53 449.2 1211.07 461.2C1211.33 469.733 1210.93 472.133 1208.4 476.667C1205.07 482.4 1198 487.733 1192.53 488.933L1188.93 489.6L1194.27 494.4C1197.2 497.067 1204 506.667 1209.47 515.867L1219.47 532.667L1207.73 533.067C1201.33 533.333 1195.87 532.933 1195.73 532.4C1194.53 529.067 1172.8 497.067 1170.67 495.467C1169.2 494.533 1165.2 493.467 1161.73 493.067L1155.33 492.267V512.8V533.333H1145.33H1135.33V483.867V434.533L1164.4 434.933C1189.6 435.333 1194 435.6 1198.4 437.867ZM1366.13 465.467L1384 496.133L1384.4 465.467L1384.67 434.667H1394H1403.33V484V533.333H1393.6H1383.87L1366 502.267L1348 471.333L1347.6 502.4L1347.33 533.467L1338.27 533.067L1329.33 532.667L1328.93 483.6L1328.67 434.667H1338.53H1348.4L1366.13 465.467ZM1441.73 483.6L1441.33 532.667L1431.73 533.067L1422 533.467V484V434.667H1432H1442L1441.73 483.6ZM1730.53 436C1737.47 437.6 1742 441.067 1745.73 447.6C1749.47 454.533 1750.67 463.2 1748.67 470.4C1746.67 477.867 1739.2 486.267 1732.53 488.133L1727.33 489.733L1733.07 495.867C1738 501.2 1756.67 530.133 1756.67 532.533C1756.67 533.067 1751.47 533.2 1745.2 533.067L1733.73 532.667L1722.67 515.333C1716.53 505.733 1710.13 497.067 1708.4 495.733C1706.8 494.533 1702.53 493.2 1699.07 492.8L1692.67 492V512.8V533.467L1683.07 533.067L1673.33 532.667L1672.93 483.6L1672.67 434.667H1698.93C1713.47 434.667 1727.73 435.333 1730.53 436ZM1836.67 443.333V452H1811.33H1786V462.667V473.333H1809.33H1832.67V482V490.667H1809.33H1786V503.333V516H1812H1838V524.667V533.333L1802.4 533.067L1766.67 532.667L1766.27 483.6L1766 434.667H1801.33H1836.67V443.333ZM1920.67 443.333V452H1906.67H1892.67V492.667V533.467L1883.07 533.067L1873.33 532.667L1872.93 492.267L1872.67 452H1859.33H1846V443.333V434.667H1883.33H1920.67V443.333ZM1987.2 482.4C1997.07 508.533 2005.47 530.8 2005.73 531.6C2006.13 532.933 2003.6 533.333 1995.6 533.333H1985.07L1981.07 522.267L1977.2 511.333L1959.2 510.933L1941.2 510.533L1937.33 522L1933.33 533.333H1923.07C1917.33 533.333 1912.67 532.933 1912.67 532.533C1912.67 532.133 1920.53 509.867 1930.27 483.2L1947.73 434.667H1958.53H1969.33L1987.2 482.4ZM2034 484V533.333H2024H2014V484V434.667H2024H2034V484ZM2275.33 454V473.333H2293.33H2311.33V454V434.667H2321.33H2331.33V484V533.467L2321.73 533.067L2312 532.667L2311.6 511.6L2311.2 490.667H2293.33H2275.33V512V533.333H2266H2256.67V484V434.667H2266H2275.33V454ZM2415.6 484C2425.73 510.8 2434 532.8 2434 532.933C2434 533.2 2429.2 533.333 2423.47 533.333H2412.93L2410.8 527.6C2409.6 524.533 2407.87 519.6 2406.8 516.667L2405.07 511.333L2387.07 510.933L2368.93 510.533L2365.2 521.6L2361.33 532.667L2351.07 533.067C2344.93 533.333 2340.67 532.933 2340.67 532.133C2340.67 531.067 2370.93 446.533 2374.67 436.933C2375.47 434.933 2377.07 434.667 2386.4 434.933L2397.07 435.333L2415.6 484ZM2462 484V533.333H2452H2442V484V434.667H2452H2462V484ZM2515.47 465.467L2533.33 496.133L2533.73 465.467L2534 434.667H2543.33H2552.67V484V533.333H2542.93H2533.2L2515.33 502.267L2497.33 471.333L2496.93 502.4L2496.67 533.467L2487.6 533.067L2478.67 532.667L2478.27 483.6L2478 434.667H2487.87H2497.73L2515.47 465.467ZM2626 484V533.333H2616.67H2607.33V484V434.667H2616.67H2626V484ZM2681.07 466.267L2699.33 498V466.267V434.667H2708.67H2718V484V533.333H2708.13H2698.27L2680.4 502.667L2662.67 471.867L2662.27 502.667L2662 533.333H2652.67H2643.33V484V434.667H2653.07H2662.8L2681.07 466.267ZM2978.27 469.867C2979.07 508 2979.73 510.933 2986.8 514.667C2988.8 515.733 2993.6 516.667 2997.6 516.533C3003.6 516.533 3005.33 515.867 3008.4 512.933C3011.6 509.733 3012.13 507.867 3012.93 497.6C3013.33 491.2 3013.87 474.4 3013.87 460.267L3014 434.667H3023.47H3032.8L3032.4 474.4L3032 514.267L3028 520.667C3025.2 525.333 3022 528.133 3017.33 530.533C3011.47 533.6 3009.2 534 2996 534C2980.13 534 2974.13 532.133 2967.87 525.067C2960.13 516.8 2960 515.733 2959.6 473.6L2959.2 434.667H2968.4H2977.6L2978.27 469.867ZM3120.67 443.333V452H3106.67H3092.67V492.667V533.333H3082.67H3072.67V492.667V452H3059.33H3046V443.333V434.667H3083.33H3120.67V443.333ZM3150 454V473.333H3168H3186V454V434.667H3196H3206V484V533.467L3196.4 533.067L3186.67 532.667L3186.27 511.6L3185.87 490.667H3168H3150V512V533.333H3140.67H3131.33V484V434.667H3140.67H3150V454ZM3318.67 437.2C3332.53 443.467 3337.73 460.133 3329.73 473.067C3328.27 475.333 3325.87 478.267 3324.27 479.333C3322.67 480.4 3322.13 481.333 3322.93 481.333C3325.73 481.333 3334.27 489.733 3336.13 494.267C3341.2 506.133 3335.87 522.533 3324.93 529.067L3318.67 532.667H3289.33H3260L3259.6 483.6L3259.33 434.667H3286.27C3309.6 434.667 3314.13 435.067 3318.67 437.2ZM3423.33 443.333V452H3398H3372.67V462.667V473.333H3396H3419.33V482V490.667H3396H3372.67V503.333V516H3398.67H3424.67V524.667V533.333L3389.07 533.067L3353.33 532.667L3352.93 483.6L3352.67 434.667H3388H3423.33V443.333ZM3476.67 466L3494.67 497.2L3495.07 466L3495.33 434.667H3504.67H3514L3513.73 483.6L3513.33 532.667H3503.47H3493.6L3475.87 502.133L3458 471.467L3457.73 502.133L3457.33 532.667L3448.4 533.067L3439.33 533.467V484V434.667H3449.07L3458.67 434.8L3476.67 466ZM3697.87 481.467C3707.6 507.2 3716 529.333 3716.27 530.8C3716.93 533.2 3716.13 533.333 3706.53 533.333H3696L3692 522L3688.13 510.667H3670H3651.87L3648.13 522L3644.53 533.333H3633.87C3627.73 533.333 3623.33 532.8 3623.6 532.133C3623.87 531.333 3631.87 509.2 3641.33 482.8L3658.67 434.667H3669.47H3680.27L3697.87 481.467ZM79.3332 476V516H102.667H126V524.667V533.333H93.3332H60.6665V484.667V436H69.9998H79.3332V476ZM818 476V516H841.333H864.667V524.667V533.333H832H799.333V484.667V436H808.667H818V476ZM2070 476V516H2093.33H2116.67V524.667V533.333H2084H2051.33V484.667V436H2060.67H2070V476ZM3746 476V516H3769.33H3792.8L3792.4 524.267L3792 532.667L3759.07 533.067L3726 533.333V484.667V436H3736H3746V476Z" fill="#ED1D25"/>
<path d="M1262.53 452.133C1256.8 453.733 1249.2 462.533 1247.2 469.6C1244.93 478.4 1246.27 496.8 1249.73 503.6C1254.13 512 1260.8 516 1270.67 516C1285.6 516 1293.87 506.267 1295.07 487.333C1296.67 461.067 1282.93 446.133 1262.53 452.133Z" fill="#ED1D25"/>
<path d="M2891.33 452.8C2881.2 457.2 2876.67 465.067 2875.73 480C2874.8 492.933 2877.47 502.933 2883.6 509.2C2888.93 514.667 2892.27 516 2900.8 516C2916.53 516 2924.67 504.8 2924.67 483.333C2924.67 470.933 2922.8 464.933 2917.07 458.533C2910.27 450.933 2900.53 448.8 2891.33 452.8Z" fill="#ED1D25"/>
<path d="M170.667 474.8C167.867 483.2 165.333 490.8 164.933 491.6C164.533 492.933 167.2 493.333 175.867 493.333C182.133 493.333 187.333 492.8 187.333 492.267C187.333 491.6 184.667 484 181.467 475.333L175.733 459.467L170.667 474.8Z" fill="#ED1D25"/>
<path d="M251.333 464V476.4L266.666 475.733C285.066 475.067 287.333 473.733 287.333 464C287.333 454.133 284.933 452.8 266.533 452.267L251.333 451.733V464Z" fill="#ED1D25"/>
<path d="M1155.33 464.133V476.4L1170.27 475.733C1184.4 475.2 1185.2 474.933 1188.27 471.467C1191.47 467.733 1192.27 461.6 1190 457.333C1188 453.6 1181.33 452 1167.87 452H1155.33V464.133Z" fill="#ED1D25"/>
<path d="M1692.67 463.867V476H1703.73C1716.8 475.867 1724.67 474.267 1726.93 471.2C1729.47 467.733 1729.07 459.467 1726.13 455.867C1723.73 452.933 1722.53 452.667 1708.13 452.267L1692.67 451.733V463.867Z" fill="#ED1D25"/>
<path d="M1953.33 474.8C1950.53 483.2 1948 490.8 1947.6 491.6C1947.2 492.933 1949.87 493.333 1958.53 493.333C1964.8 493.333 1970 492.8 1970 492.267C1970 491.6 1967.33 484 1964.13 475.333L1958.4 459.467L1953.33 474.8Z" fill="#ED1D25"/>
<path d="M2384.53 464.8C2382 471.467 2375.33 491.067 2375.33 492.267C2375.33 492.8 2380.4 493.333 2386.67 493.333C2392.93 493.333 2398 493.2 2398 492.933C2398 492 2387.07 462 2386.67 461.467C2386.27 461.2 2385.33 462.667 2384.53 464.8Z" fill="#ED1D25"/>
<path d="M3279.33 462.667V473.6L3293.87 473.067C3310.93 472.533 3314 470.933 3314 462.667C3314 454.4 3310.93 452.8 3293.87 452.267L3279.33 451.733V462.667Z" fill="#ED1D25"/>
<path d="M3279.33 503.333V516.4L3295.07 515.467C3304.8 514.8 3311.73 513.733 3313.6 512.533C3317.07 510.267 3318.8 502.8 3316.8 498.8C3314 493.733 3309.87 492.267 3294.4 491.333L3279.33 490.4V503.333Z" fill="#ED1D25"/>
<path d="M3663.73 476.667L3658.27 493.333H3670.13H3682L3680.53 489.6C3679.73 487.6 3677.07 480.4 3674.53 473.467C3672 466.533 3669.73 460.667 3669.6 460.533C3669.33 460.267 3666.8 467.6 3663.73 476.667Z" fill="#ED1D25"/>
</svg>
